<svg xmlns="http://www.w3.org/2000/svg" height="90.75" width="249.09" viewBox="0 0 249.09375 90.75">
 <g>
  <path d="m1.1695 1.1229h247.09v88.75h-247.09v-88.75z" fill="#0051ba"/>
  <path d="m124.72 85.81c67.125 0 121.62-18.125 121.62-40.625-0.0813-22.5-54.375-40.625-121.56-40.625-67.191 0-121.56 18.125-121.56 40.625-0.05 22.5 54.375 40.625 121.56 40.625" fill="#ffda1a"/>
  <path fill="#0051ba" d="m35.092 27.998s1.033 0.625 1.033 2.188l-0.096 27.5c0 0.312 0.182 2.5-1.068 3.125h22.943c-1.25-0.625-1.17-2.813-1.17-3.125l-0.08-27.5c0-1.563 1.041-2.188 1.041-2.188h-22.603zm32.187 0s0.903 0.625 0.903 2.188l0.035 27.5c0 0.312 0.045 2.5-1.201 3.125h22.138c-1.25-0.625-0.974-2.813-0.974-3.125v-10.313l6.912 11.25c0.625 1.563-0.125 2.188-0.125 2.188h26.063s-0.42-0.313-0.94-0.625c-0.62-0.313-1.28-0.938-2.18-2.188l-10.4-16.562 8.21-11.563c0.93-1.25 2.07-1.875 2.18-1.875h-22.183s1.121 0.938 0.033 2.5l-7.568 10.625 0.035-10.937c0-1.563 0.924-2.188 0.924-2.188h-21.862zm58.161 0s0.9 0.625 0.9 2.188l0.06 27.5c0 0.312-0.06 2.5-1.31 3.125h37.93v-11.563s-1.37 1.563-3.55 1.563h-13.74v-2.813h10.63c0.59 0 2.48 0.313 2.79 0.938l0.09-10c-0.47 0.625-2.27 0.937-2.9 0.937h-10.61v-2.812h13.85c2.04 0 3.32 1.562 3.32 1.562l0.12-10.625h-37.58zm53.09 0s1.22 0.938 0.51 2.813l-10.51 27.5c-0.63 1.562-1.68 2.5-1.68 2.5h19.49s-0.9-1.25-0.55-2.5l1.59-4.063h9.69l1.46 4.063c0.62 1.25-0.52 2.5-0.52 2.5h24.27s-1.16-0.938-2.03-2.5l-11.1-27.5c-0.62-1.875 0.62-2.813 0.62-2.813h-31.24zm13.44 12.5h0.07s-0.03 0.206-0.03 0.303c0.04 0.354 0.14 1.082 0.27 1.572 0.31 0.313 2.55 5.938 2.55 5.938h-5.68s2.47-5.625 2.5-5.938c0.25-0.49 0.33-1.218 0.36-1.572-0.02-0.097-0.04-0.303-0.04-0.303z"/>
 </g>
</svg>
